name analog
datacolumns 19
datarows 19
range 0.1465 0.1555
endheader
time	ground_force_vx	ground_force_vy	ground_force_vz	ground_force_px	ground_force_py	ground_force_pz	l_ground_force_vx	l_ground_force_vy	l_ground_force_vz	l_ground_force_px	l_ground_force_py	l_ground_force_pz	ground_torque_x	ground_torque_y	ground_torque_z	l_ground_torque_x	l_ground_torque_y	l_ground_torque_z
0.1465	-0.0	-0.0	-0.0	-5.153147220611572	44.45502853393555	-413.685546875	-2.768836736679077	-50.63640594482422	-500.2232666015625	-35.33359146118164	16.324769973754883	75.88911437988281	-0.0	-0.0	-0.0	96658.546875	-4136.4375	-19603.21484375
0.147	-0.0	-0.0	-0.0	-5.629603385925293	44.724796295166016	-412.440185546875	-3.0651848316192627	-50.97089767456055	-499.7922058105469	-35.27740478515625	16.15423011779785	74.83700561523438	-0.0	-0.0	-0.0	96442.2890625	-3695.164306640625	-19672.23046875
0.1475	-0.0	-0.0	-0.0	-6.333946228027344	44.74346160888672	-411.6128845214844	-3.104877471923828	-50.84294509887695	-498.5885009765625	-35.26509475708008	16.22559356689453	75.41850280761719	-0.0	-0.0	-0.0	95833.4375	-3503.259765625	-19682.380859375
0.148	-0.0	-0.0	-0.0	-6.623156547546387	44.81418991088867	-412.6725463867188	-3.2027840614318848	-50.55958938598633	-496.3733215332031	-35.14800262451172	16.17262077331543	75.3827133178711	-0.0	-0.0	-0.0	95463.4765625	-3154.1904296875	-19794.8828125
0.1485	-0.0	-0.0	-0.0	-6.930963039398193	45.58563232421875	-411.8938293457031	-3.312947988510132	-50.02968978881836	-496.2164001464844	-35.37626647949219	16.253273010253906	77.01611328125	-0.0	-0.0	-0.0	95001.6171875	-2939.67431640625	-19751.900390625
0.149	-0.0	-0.0	-0.0	-6.913039207458496	45.683868408203125	-412.6578979492188	-3.606379747390747	-50.04231262207031	-493.6290588378906	-35.537139892578125	16.361312866210938	75.9634017944336	-0.0	-0.0	-0.0	94736.5078125	-2776.0732421875	-19768.49609375
0.1495	-0.0	-0.0	-0.0	-6.5524725914001465	45.723899841308594	-413.71624755859375	-4.022861480712891	-50.078399658203125	-491.77777099609375	-35.26456451416016	16.361045837402344	75.96355438232422	-0.0	-0.0	-0.0	94318.2265625	-2625.081298828125	-19896.498046875
0.15	-0.0	-0.0	-0.0	-6.891416072845459	45.723899841308594	-414.8985290527344	-4.422494888305664	-49.42451858520508	-488.5496826171875	-34.969337463378906	16.13608741760254	75.61268615722656	-0.0	-0.0	-0.0	93437.9375	-2415.32373046875	-19749.638671875
0.1505	-0.0	-0.0	-0.0	-6.615091800689697	46.55270004272461	-415.18060302734375	-4.493199825286865	-49.23492813110352	-486.9792175292969	-35.50616455078125	16.113462448120117	74.7528076171875	-0.0	-0.0	-0.0	93037.0	-2154.973388671875	-19752.669921875
0.151	-0.0	-0.0	-0.0	-6.886823654174805	46.22348403930664	-415.6230773925781	-4.83913516998291	-48.6167106628418	-483.3485107421875	-35.24663543701172	16.302146911621094	76.47315979003906	-0.0	-0.0	-0.0	92383.0	-1895.7471923828125	-19787.0
0.1515	-0.0	-0.0	-0.0	-7.493682861328125	46.24991607666016	-416.150146484375	-4.901556968688965	-48.13532257080078	-481.2882690429688	-35.25537109375	16.22634506225586	75.8056640625	-0.0	-0.0	-0.0	91892.8125	-1698.965576171875	-19699.265625
0.152	-0.0	-0.0	-0.0	-7.833138942718506	46.45431137084961	-417.5274963378906	-5.734867095947266	-47.42537307739258	-479.5426635742188	-35.13120651245117	16.046520233154297	75.0698013305664	-0.0	-0.0	-0.0	91571.4140625	-1638.2308349609375	-19646.14453125
0.1525	-0.0	-0.0	-0.0	-8.135390281677246	46.32476806640625	-417.68646240234375	-6.063780784606934	-46.83323669433594	-476.5919799804688	-35.16575622558594	16.217945098876953	74.71914672851562	-0.0	-0.0	-0.0	91265.9921875	-1525.9437255859375	-19689.220703125
0.153	-0.0	-0.0	-0.0	-8.604520797729492	46.60662078857422	-416.97991943359375	-6.063824653625488	-46.5626106262207	-475.5782775878906	-35.09962463378906	16.226619720458984	75.26246643066406	-0.0	-0.0	-0.0	90583.7265625	-1361.0802001953125	-19634.599609375
0.1535	-0.0	-0.0	-0.0	-9.537013053894045	46.63850784301758	-417.3663330078125	-6.161149501800537	-46.00713348388672	-473.9900512695313	-35.238162994384766	16.365949630737305	75.93126678466797	-0.0	-0.0	-0.0	90300.46875	-1346.289306640625	-19424.07421875
0.154	-0.0	-0.0	-0.0	-9.74925136566162	46.83381271362305	-416.3323669433594	-6.178036689758301	-45.67070007324219	-469.7337646484375	-35.263431549072266	16.18608856201172	75.22981262207031	-0.0	-0.0	-0.0	89220.9765625	-1158.5872802734375	-19416.27734375
0.1545	-0.0	-0.0	-0.0	-9.895583152770996	47.65279769897461	-415.2794799804688	-6.152807712554932	-45.29231262207031	-466.7496643066406	-35.3682746887207	16.46444320678711	75.61377716064453	-0.0	-0.0	-0.0	89031.1875	-908.7272338867188	-19332.78515625
0.155	-0.0	-0.0	-0.0	-10.583938598632812	47.76557922363281	-414.7603759765625	-6.322023868560791	-45.10892868041992	-465.2281799316406	-35.12488555908203	16.01459503173828	75.8056640625	-0.0	-0.0	-0.0	88551.578125	-712.2395629882812	-19065.830078125
0.1555	-0.0	-0.0	-0.0	-9.886645317077637	47.806095123291016	-414.4403381347656	-6.387176513671875	-43.904083251953125	-462.3702087402344	-35.1653938293457	15.900296211242676	76.507568359375	-0.0	-0.0	-0.0	88254.890625	-738.3140869140625	-19283.8671875
